<?xml version="1.0" encoding="UTF-8" standalone="no"?>
<!DOCTYPE svg PUBLIC "-//W3C//DTD SVG 1.1//EN"
 "http://www.w3.org/Graphics/SVG/1.1/DTD/svg11.dtd">
<!-- Generated by graphviz version 2.47.0 (20210316.0004)
 -->
<!-- Title: dependencies Pages: 1 -->
<svg width="1086pt" height="287pt"
 viewBox="0.00 0.00 1086.00 287.00" xmlns="http://www.w3.org/2000/svg" xmlns:xlink="http://www.w3.org/1999/xlink">
<g id="graph0" class="graph" transform="scale(1 1) rotate(0) translate(4 283)">
<title>dependencies</title>
<polygon fill="white" stroke="transparent" points="-4,4 -4,-283 1082,-283 1082,4 -4,4"/>
<text text-anchor="start" x="518.01" y="-42.4" font-family="Times-12" font-weight="bold" font-size="14.00">Legend</text>
<polygon fill="#ffffb3" stroke="transparent" points="305,-10 305,-30 325,-30 325,-10 305,-10"/>
<text text-anchor="start" x="328.63" y="-15.4" font-family="Times-12" font-size="14.00"> &#160;Declarations</text>
<polygon fill="#8dd3c7" stroke="transparent" points="418,-10 418,-30 438,-30 438,-10 418,-10"/>
<text text-anchor="start" x="441.73" y="-15.4" font-family="Times-12" font-size="14.00"> &#160;Module</text>
<polygon fill="#80b1d3" stroke="transparent" points="504,-10 504,-30 524,-30 524,-10 504,-10"/>
<text text-anchor="start" x="527.78" y="-15.4" font-family="Times-12" font-size="14.00"> &#160;Bootstrap</text>
<polygon fill="#fdb462" stroke="transparent" points="601,-10 601,-30 621,-30 621,-10 601,-10"/>
<text text-anchor="start" x="624.67" y="-15.4" font-family="Times-12" font-size="14.00"> &#160;Providers</text>
<polygon fill="#fb8072" stroke="transparent" points="697,-10 697,-30 717,-30 717,-10 697,-10"/>
<text text-anchor="start" x="720.73" y="-15.4" font-family="Times-12" font-size="14.00"> &#160;Exports</text>
<g id="clust1" class="cluster">
<title>cluster_AppModule</title>
<polygon fill="none" stroke="black" stroke-dasharray="1,5" points="168,-70 168,-271 530,-271 530,-70 168,-70"/>
</g>
<g id="clust3" class="cluster">
<title>cluster_AppModule_imports</title>
<polygon fill="none" stroke="black" points="314,-78 314,-206 522,-206 522,-78 314,-78"/>
</g>
<g id="clust6" class="cluster">
<title>cluster_AppModule_providers</title>
<polygon fill="none" stroke="black" points="176,-154 176,-206 306,-206 306,-154 176,-154"/>
</g>
<g id="clust7" class="cluster">
<title>cluster_AuthModule</title>
<polygon fill="none" stroke="black" stroke-dasharray="1,5" points="538,-146 538,-214 802,-214 802,-146 538,-146"/>
</g>
<g id="clust10" class="cluster">
<title>cluster_AuthModule_exports</title>
<polygon fill="none" stroke="black" points="688,-154 688,-206 794,-206 794,-154 688,-154"/>
</g>
<g id="clust12" class="cluster">
<title>cluster_AuthModule_providers</title>
<polygon fill="none" stroke="black" points="546,-154 546,-206 680,-206 680,-154 546,-154"/>
</g>
<g id="clust13" class="cluster">
<title>cluster_PostsModule</title>
<polygon fill="none" stroke="black" stroke-dasharray="1,5" points="8,-70 8,-138 160,-138 160,-70 8,-70"/>
</g>
<g id="clust18" class="cluster">
<title>cluster_PostsModule_providers</title>
<polygon fill="none" stroke="black" points="16,-78 16,-130 152,-130 152,-78 16,-78"/>
</g>
<g id="clust19" class="cluster">
<title>cluster_UserModule</title>
<polygon fill="none" stroke="black" stroke-dasharray="1,5" points="810,-146 810,-214 1070,-214 1070,-146 810,-146"/>
</g>
<g id="clust22" class="cluster">
<title>cluster_UserModule_exports</title>
<polygon fill="none" stroke="black" points="958,-154 958,-206 1062,-206 1062,-154 958,-154"/>
</g>
<g id="clust24" class="cluster">
<title>cluster_UserModule_providers</title>
<polygon fill="none" stroke="black" points="818,-154 818,-206 950,-206 950,-154 818,-154"/>
</g>
<!-- AuthModule -->
<g id="node1" class="node">
<title>AuthModule</title>
<polygon fill="#8dd3c7" stroke="black" points="409.55,-122 406.55,-126 385.55,-126 382.55,-122 322.45,-122 322.45,-86 409.55,-86 409.55,-122"/>
<text text-anchor="middle" x="366" y="-99.8" font-family="Times,serif" font-size="14.00">AuthModule</text>
</g>
<!-- AppModule -->
<g id="node4" class="node">
<title>AppModule</title>
<polygon fill="#8dd3c7" stroke="black" points="440.66,-263 437.66,-267 416.66,-267 413.66,-263 357.34,-263 357.34,-227 440.66,-227 440.66,-263"/>
<text text-anchor="middle" x="399" y="-240.8" font-family="Times,serif" font-size="14.00">AppModule</text>
</g>
<!-- AuthModule&#45;&gt;AppModule -->
<g id="edge1" class="edge">
<title>AuthModule&#45;&gt;AppModule</title>
<path fill="none" stroke="black" d="M409.94,-110C414.24,-110 417.04,-110 417.04,-110 417.04,-110 417.04,-216.79 417.04,-216.79"/>
<polygon fill="black" stroke="black" points="413.54,-216.79 417.04,-226.79 420.54,-216.79 413.54,-216.79"/>
</g>
<!-- AuthService  -->
<g id="node6" class="node">
<title>AuthService </title>
<polygon fill="#fb8072" stroke="black" points="785.98,-198 696.02,-198 696.02,-162 785.98,-162 785.98,-198"/>
<text text-anchor="middle" x="741" y="-175.8" font-family="Times,serif" font-size="14.00">AuthService </text>
</g>
<!-- AuthModule&#45;&gt;AuthService  -->
<g id="edge5" class="edge">
<title>AuthModule&#45;&gt;AuthService </title>
<path fill="none" stroke="black" stroke-dasharray="5,2" d="M366.11,-122.11C366.11,-131.9 366.11,-142 366.11,-142 366.11,-142 741,-142 741,-142 741,-142 741,-151.89 741,-151.89"/>
<polygon fill="black" stroke="black" points="737.5,-151.89 741,-161.89 744.5,-151.89 737.5,-151.89"/>
</g>
<!-- PostsModule -->
<g id="node2" class="node">
<title>PostsModule</title>
<polygon fill="#8dd3c7" stroke="black" points="411.61,-198 408.61,-202 387.61,-202 384.61,-198 322.39,-198 322.39,-162 411.61,-162 411.61,-198"/>
<text text-anchor="middle" x="367" y="-175.8" font-family="Times,serif" font-size="14.00">PostsModule</text>
</g>
<!-- PostsModule&#45;&gt;AppModule -->
<g id="edge2" class="edge">
<title>PostsModule&#45;&gt;AppModule</title>
<path fill="none" stroke="black" d="M384.36,-198.11C384.36,-198.11 384.36,-216.99 384.36,-216.99"/>
<polygon fill="black" stroke="black" points="380.86,-216.99 384.36,-226.99 387.86,-216.99 380.86,-216.99"/>
</g>
<!-- UserModule -->
<g id="node3" class="node">
<title>UserModule</title>
<polygon fill="#8dd3c7" stroke="black" points="513.98,-122 510.98,-126 489.98,-126 486.98,-122 428.02,-122 428.02,-86 513.98,-86 513.98,-122"/>
<text text-anchor="middle" x="471" y="-99.8" font-family="Times,serif" font-size="14.00">UserModule</text>
</g>
<!-- UserModule&#45;&gt;PostsModule -->
<g id="edge7" class="edge">
<title>UserModule&#45;&gt;PostsModule</title>
<path fill="none" stroke="black" d="M432.28,-122.03C432.28,-142.77 432.28,-174 432.28,-174 432.28,-174 421.63,-174 421.63,-174"/>
<polygon fill="black" stroke="black" points="421.63,-170.5 411.63,-174 421.63,-177.5 421.63,-170.5"/>
</g>
<!-- UserModule&#45;&gt;AppModule -->
<g id="edge3" class="edge">
<title>UserModule&#45;&gt;AppModule</title>
<path fill="none" stroke="black" d="M436.56,-122.14C436.56,-122.14 436.56,-216.93 436.56,-216.93"/>
<polygon fill="black" stroke="black" points="433.06,-216.92 436.56,-226.93 440.06,-216.93 433.06,-216.92"/>
</g>
<!-- UserService  -->
<g id="node9" class="node">
<title>UserService </title>
<polygon fill="#fb8072" stroke="black" points="1053.9,-198 966.1,-198 966.1,-162 1053.9,-162 1053.9,-198"/>
<text text-anchor="middle" x="1010" y="-175.8" font-family="Times,serif" font-size="14.00">UserService </text>
</g>
<!-- UserModule&#45;&gt;UserService  -->
<g id="edge9" class="edge">
<title>UserModule&#45;&gt;UserService </title>
<path fill="none" stroke="black" stroke-dasharray="5,2" d="M514.2,-98C642.1,-98 1010,-98 1010,-98 1010,-98 1010,-151.8 1010,-151.8"/>
<polygon fill="black" stroke="black" points="1006.5,-151.8 1010,-161.8 1013.5,-151.8 1006.5,-151.8"/>
</g>
<!-- AppService -->
<g id="node5" class="node">
<title>AppService</title>
<ellipse fill="#fdb462" stroke="black" cx="241" cy="-180" rx="56.74" ry="18"/>
<text text-anchor="middle" x="241" y="-175.8" font-family="Times,serif" font-size="14.00">AppService</text>
</g>
<!-- AppService&#45;&gt;AppModule -->
<g id="edge4" class="edge">
<title>AppService&#45;&gt;AppModule</title>
<path fill="none" stroke="black" d="M241,-198.11C241,-217.34 241,-245 241,-245 241,-245 347.07,-245 347.07,-245"/>
<polygon fill="black" stroke="black" points="347.07,-248.5 357.07,-245 347.07,-241.5 347.07,-248.5"/>
</g>
<!-- AuthService -->
<g id="node7" class="node">
<title>AuthService</title>
<ellipse fill="#fdb462" stroke="black" cx="613" cy="-180" rx="59.11" ry="18"/>
<text text-anchor="middle" x="613" y="-175.8" font-family="Times,serif" font-size="14.00">AuthService</text>
</g>
<!-- AuthService&#45;&gt;AuthModule -->
<g id="edge6" class="edge">
<title>AuthService&#45;&gt;AuthModule</title>
<path fill="none" stroke="black" d="M556.88,-186C500.7,-186 422.53,-186 422.53,-186 422.53,-186 422.53,-98 422.53,-98 422.53,-98 419.7,-98 419.7,-98"/>
<polygon fill="black" stroke="black" points="419.7,-94.5 409.7,-98 419.7,-101.5 419.7,-94.5"/>
</g>
<!-- PostsService -->
<g id="node8" class="node">
<title>PostsService</title>
<ellipse fill="#fdb462" stroke="black" cx="84" cy="-104" rx="60.27" ry="18"/>
<text text-anchor="middle" x="84" y="-99.8" font-family="Times,serif" font-size="14.00">PostsService</text>
</g>
<!-- PostsService&#45;&gt;PostsModule -->
<g id="edge8" class="edge">
<title>PostsService&#45;&gt;PostsModule</title>
<path fill="none" stroke="black" d="M144.54,-104C211.46,-104 309.92,-104 309.92,-104 309.92,-104 309.92,-180 309.92,-180 309.92,-180 312.31,-180 312.31,-180"/>
<polygon fill="black" stroke="black" points="312.31,-183.5 322.31,-180 312.31,-176.5 312.31,-183.5"/>
</g>
<!-- UserService -->
<g id="node10" class="node">
<title>UserService</title>
<ellipse fill="#fdb462" stroke="black" cx="884" cy="-180" rx="58.44" ry="18"/>
<text text-anchor="middle" x="884" y="-175.8" font-family="Times,serif" font-size="14.00">UserService</text>
</g>
<!-- UserService&#45;&gt;UserModule -->
<g id="edge10" class="edge">
<title>UserService&#45;&gt;UserModule</title>
<path fill="none" stroke="black" d="M884,-161.97C884,-141.23 884,-110 884,-110 884,-110 524.03,-110 524.03,-110"/>
<polygon fill="black" stroke="black" points="524.03,-106.5 514.03,-110 524.03,-113.5 524.03,-106.5"/>
</g>
</g>
</svg>
